<svg width="28" height="28" viewBox="0 0 28 28" fill="none" xmlns="http://www.w3.org/2000/svg">
<path fill-rule="evenodd" clip-rule="evenodd" d="M21.913 5.18018C22.412 5.18032 22.8199 5.58809 22.8199 6.08708V21.9115C22.8199 22.4105 22.412 22.8198 21.913 22.8199H6.08708C5.58823 22.8197 5.18018 22.4104 5.18018 21.9115V6.08708C5.18018 5.58817 5.58823 5.18045 6.08708 5.18018H21.913ZM6.9955 21.0046H21.0046V6.99398H6.9955V21.0046Z" fill="currentColor"/>
<path d="M10.9678 19.0574H8.94629V17.0339H10.9678V19.0574ZM19.0537 19.0574H17.0322V17.0339H19.0537V19.0574ZM12.9893 17.0339H10.9678V15.0115H12.9893V17.0339ZM17.0312 17.0339H15.0098V15.0115H17.0312V17.0339ZM12.9893 12.988H10.9678V10.9646H12.9893V12.988ZM17.0312 12.9871H15.0098V10.9646H17.0312V12.9871ZM10.9678 10.9656H8.94629V8.94214H10.9678V10.9656ZM19.0537 10.9656H17.0322V8.94214H19.0537V10.9656Z" fill="currentColor"/>
</svg>
