<svg width="24" height="24" viewBox="0 0 24 24" fill="none" xmlns="http://www.w3.org/2000/svg">
<path fill-rule="evenodd" clip-rule="evenodd" d="M13.0012 4.22262C17.298 4.22308 20.7785 7.70303 20.7785 12C20.7784 16.2968 17.2979 19.7755 13.0012 19.776L12.9999 19.7773C8.70293 19.7771 5.22265 16.2969 5.22253 12C5.22253 7.70288 8.70286 4.22155 12.9999 4.22131L13.0012 4.22262ZM10.9556 12.7773C11.133 16.3523 12.5014 18.2194 12.9999 18.2213C13.4982 18.22 14.868 16.3529 15.0455 12.7773H10.9556ZM6.828 12.7773C7.1064 14.9985 8.5602 16.8584 10.5455 17.7148C9.91241 16.459 9.48825 14.7241 9.39832 12.7773H6.828ZM16.6027 12.7773C16.5128 14.7242 16.0887 16.459 15.4556 17.7148C17.4406 16.8584 18.8933 14.9983 19.1718 12.7773H16.6027ZM10.5468 6.28121C8.56017 7.13718 7.10637 9.0004 6.828 11.2226H9.39832C9.48828 9.27392 9.91275 7.53734 10.5468 6.28121ZM12.9999 5.7773C12.5014 5.77921 11.1329 7.64731 10.9556 11.2226H15.0455C14.8677 7.64678 13.4946 5.77866 12.9999 5.7773ZM15.4543 6.28251C16.088 7.53857 16.5128 9.27441 16.6027 11.2226H19.1718C18.8934 9.00076 17.4404 7.13864 15.4543 6.28251Z" fill="currentColor"/>
</svg>
