<svg width="24" height="24" viewBox="0 0 24 24" fill="none" xmlns="http://www.w3.org/2000/svg">
<path d="M12.4219 7.47518L13.6628 10.2069L13.7917 10.3359L16.5248 11.578L16.6029 11.6132V12.3866L16.5248 12.4218L13.7917 13.6627L13.6628 13.7916L12.4219 16.5247L12.3868 16.6028H11.6133L11.5782 16.5247L10.336 13.7916L10.2071 13.6627L7.4753 12.4218L7.39718 12.3866V11.6132L7.4753 11.578L10.2071 10.3359L10.336 10.2069L11.5782 7.47518L11.6133 7.39705H12.3868L12.4219 7.47518Z" fill="currentColor"/>
<path fill-rule="evenodd" clip-rule="evenodd" d="M12.3894 4.2369H12.392L12.7761 4.26554C16.706 4.6583 19.7722 7.97333 19.7722 11.9999C19.7722 16.2905 16.2902 19.772 11.9922 19.7721H11.9896L11.5964 19.7629H11.5925C7.48778 19.5545 4.22791 16.1562 4.22791 11.9999C4.22791 7.70966 7.70168 4.22797 11.9922 4.22778H11.9961L12.3894 4.2369ZM11.9922 5.79289C8.56822 5.79308 5.79301 8.57216 5.79301 11.9999C5.79301 15.4277 8.56822 18.2068 11.9922 18.2069L12.3125 18.1991C15.5981 18.0327 18.2071 15.3179 18.2071 11.9999C18.2071 8.6819 15.5981 5.96718 12.3125 5.8007L11.9922 5.79289Z" fill="currentColor"/>
</svg>
