<svg width="24" height="24" viewBox="0 0 24 24" fill="none" xmlns="http://www.w3.org/2000/svg">
<path d="M19.8455 11.999C19.8455 13.9495 19.1185 15.8257 17.8156 17.2646L17.5474 17.5459C16.1682 18.9251 14.3287 19.7375 12.3898 19.8337L12.0005 19.8441H11.9979C9.82321 19.8359 7.73597 18.987 6.17236 17.4756L6.16195 17.4665L5.84554 17.1488V19.0667H4.15674V15.111C4.15709 14.6451 4.53453 14.2662 5.00049 14.266H8.95622V15.9548H7.03955L7.35075 16.266L7.58903 16.486C8.80777 17.5535 10.3743 18.1473 12.0018 18.154C13.6339 18.1536 15.1993 17.506 16.3534 16.3519L16.5643 16.1305C17.5863 15.0014 18.1567 13.5292 18.1567 11.999V11.9326H19.8455V11.999Z" fill="currentColor"/>
<path d="M12.4106 4.16699C14.4376 4.27248 16.364 5.10679 17.8299 6.52376L17.8403 6.53288L18.1567 6.84928V4.93262H19.8455V8.88835C19.8455 9.35472 19.4669 9.7334 19.0005 9.7334H15.0448V8.04329H16.9614L16.6515 7.7334L16.4119 7.51335C15.2742 6.51705 13.8338 5.93192 12.3234 5.85319L11.9992 5.84408C10.4693 5.84451 8.99774 6.41445 7.86898 7.43652L7.64893 7.64746C6.49479 8.8016 5.84583 10.3669 5.84554 11.999V12.0667H4.15674V11.999C4.15702 9.91894 4.98275 7.92301 6.45361 6.45215L6.73617 6.18392C8.17496 4.88144 10.0505 4.15538 12.0005 4.15527H12.0044L12.4106 4.16699Z" fill="currentColor"/>
</svg>
