<svg width="18" height="18" viewBox="0 0 18 18" fill="none" xmlns="http://www.w3.org/2000/svg">
<path d="M4.56356 4.3139C6.49182 2.57186 9.46891 2.6295 11.3272 4.48773L11.5011 4.67132C13.0387 6.37331 13.1727 8.89121 11.9054 10.7368L15.0587 13.8901L13.9981 14.9506L10.877 11.8295C9.01474 13.2888 6.34336 13.2167 4.56356 11.6088L4.37997 11.435C2.4617 9.51674 2.46174 6.40601 4.37997 4.48773L4.56356 4.3139ZM10.2667 5.54827C8.93417 4.21583 6.77302 4.2158 5.44052 5.54827C4.10809 6.88077 4.10805 9.04197 5.44052 10.3744C6.773 11.7069 8.93416 11.7068 10.2667 10.3744C11.5992 9.04195 11.5992 6.88077 10.2667 5.54827Z" fill="currentColor"/>
</svg>
